# xmcd
#
# Track frame offsets:
#	150
#	12942
#	30774
#	48705
#	70056
#	84305
#	97219
#	110129
#	122994
#	139989
#	153068
#	167381
#	181112
#	195797
#	211968
#
# Disc length: 2971 seconds
#
# Revision: 1
# Processed by: cddbd v1.5.2PL0 Copyright (c) Steve Scherf et al.
# Submitted via: audiograbber 1.83.01
#
DISCID=bd0b990f
DTITLE=Danny Knicely and Will Lee - Murders, Drownings, and Lost Loves
DYEAR=2006
DGENRE=Bluegrass
TTITLE0=Red Mountain Wine
TTITLE1=River Underground
TTITLE2=Dusty Miller
TTITLE3=Footsteps So Near
TTITLE4=Watson Blues
TTITLE5=Jake Satterfield
TTITLE6=Arkansas Traveler
TTITLE7=Midnight On The Stormy Deep
TTITLE8=Row Hoe
TTITLE9=East Virginia
TTITLE10=St. Anne's Reel
TTITLE11=Weeping Willow
TTITLE12=Water So Cold
TTITLE13=Late Last Night
TTITLE14=Pike County Breakdown
EXTD=WildChild 11052
EXTT0=
EXTT1=
EXTT2=
EXTT3=
EXTT4=
EXTT5=
EXTT6=
EXTT7=
EXTT8=
EXTT9=
EXTT10=
EXTT11=
EXTT12=
EXTT13=
EXTT14=
PLAYORDER=
